<!-- icon666.com - MILLIONS vector ICONS FREE --><svg viewBox="0 -26 447.49389 447" xmlns="http://www.w3.org/2000/svg"><path d="m321.070312 310.914062c-23.011718 0-41.667968 18.652344-41.667968 41.667969 0 23.011719 18.652344 41.664063 41.664062 41.667969 23.011719 0 41.667969-18.65625 41.667969-41.667969-.023437-23-18.664063-41.640625-41.664063-41.667969zm0 0" fill="#000000" style="fill: rgb(255, 255, 255);"></path><path d="m440.492188 63.246094h-357.199219l-6.800781-27.675782c-5.0625-20.804687-23.742188-35.414062-45.152344-35.324218h-24.339844c-3.867188 0-7 3.136718-7 7 0 3.867187 3.132812 7 7 7h24.339844c14.980468-.027344 28.027344 10.214844 31.558594 24.773437l48.554687 198.691407c5.046875 20.851562 23.710937 35.539062 45.160156 35.535156h207.691407c21.730468.046875 40.574218-15.011719 45.320312-36.214844l37.691406-164.929688c.476563-2.121093-.019531-4.347656-1.347656-6.070312-1.3125-1.703125-3.324219-2.726562-5.476562-2.785156zm0 0" fill="#000000" style="fill: rgb(255, 255, 255);"></path><path d="m185.808594 310.914062c-23.011719 0-41.667969 18.652344-41.667969 41.667969 0 23.011719 18.652344 41.664063 41.664063 41.667969 23.011718 0 41.667968-18.65625 41.667968-41.667969-.023437-23-18.664062-41.640625-41.664062-41.667969zm0 0" fill="#000000" style="fill: rgb(255, 255, 255);"></path></svg>